<?xml version="1.0" encoding="utf-8"?>
<!-- Generator: Adobe Illustrator 24.2.0, SVG Export Plug-In . SVG Version: 6.00 Build 0)  -->
<svg version="1.1" id="Layer_1" xmlns="http://www.w3.org/2000/svg" xmlns:xlink="http://www.w3.org/1999/xlink" x="0px" y="0px"
	 viewBox="0 0 400 160" style="enable-background:new 0 0 1000 160;" xml:space="preserve">
<style type="text/css">
	.st0{fill-rule:evenodd;clip-rule:evenodd;}
</style>
<g>
	<path class="st0" d="M88.5,60.9c0,0,1.2,0,1.8,0.1c0.8,0,1.3,0.1,1.9,0.2c0,0-0.8,11.2-1.1,16.1c-0.3,5.1-1,13.5-1.5,19.9
		c0,0-1.1,0.2-2.8,0.2c-1.6,0.1-2.4,0.1-2.6,0.1c-0.8-2.8-1.6-6.7-2.7-8.3c-0.9-1.4-2.2-1.5-2.9-1.6c-1.2-0.1-2.2-0.2-2.6-0.2
		s-1.4,0-2.6,0.2c-0.8,0.1-2.1,0.2-2.9,1.6c-1.1,1.7-1.9,5.6-2.7,8.3c0,0-0.8,0-2.6-0.1c-1.7-0.1-2.8-0.2-2.8-0.2
		c-0.5-6.4-1.2-14.9-1.5-19.9c-0.3-4.9-1.1-16.1-1.1-16.1c0.6-0.1,1.2-0.1,1.9-0.2c0.5,0,1.8-0.1,1.8-0.1c1.2,5.5,1.7,8,2.7,12
		c1,3.9,1.7,7.4,3,9.1s3,2.2,4.2,2.3c0.6,0.1,1.1,0.1,2.4,0.1s1.8,0,2.4-0.1c1.2-0.1,2.9-0.5,4.2-2.3c1.3-1.7,2.1-5.3,3-9.1
		C86.8,68.9,87.3,66.3,88.5,60.9L88.5,60.9z M76.2,58.9c-2.2,0-5.7,0.1-8.1,0.2c-2.8,0.1-5.7,0.4-8,0.9c-4.8,0.9-6.9,3.1-7.6,7.6
		c-0.4,3-0.4,8.5-0.2,12c0.4,5.6,1,9.1,1.6,11.7c0.6,2.2,1.4,3.7,2.6,4.8c1.9,1.7,4.6,2.2,6.1,2.4c3.4,0.5,9,0.6,13.5,0.6
		s10.2-0.2,13.5-0.6c1.6-0.2,4.2-0.6,6.1-2.4c1.2-1.1,1.9-2.5,2.6-4.8c0.8-2.5,1.3-5.8,1.6-11.7c0.2-3.5,0.2-9-0.2-12
		c-0.5-4.5-2.8-6.7-7.6-7.6c-2.3-0.4-5.3-0.6-8-0.9C82,59,78.2,58.9,76.2,58.9L76.2,58.9z M76.5,57.2c1.7,0,6.3,0.1,8.2,0.2
		c2.4,0.1,6.2,0.4,8.2,0.8c4.2,0.8,9,2.3,9.7,9.4c0.2,1.9,0.2,4.5,0.2,7.2c-0.1,4.5-0.4,7.6-0.6,9.7c-0.1,1.5-0.8,5.7-1.5,8.1
		c-1.1,3.1-2.1,4.1-3.2,5c-2.1,1.7-5.5,2.3-6.2,2.4c-3.9,0.6-11.7,0.9-15.1,0.9S64.9,100.8,61,100c-0.8-0.1-4.2-0.6-6.2-2.4
		c-1.2-1-2.2-1.8-3.2-5c-0.8-2.3-1.4-6.6-1.5-8.1c-0.2-2.2-0.6-5.2-0.6-9.7c0-2.8,0-5.3,0.2-7.2c0.8-7.1,5.5-8.6,9.7-9.4
		c2.2-0.3,5.8-0.6,8.2-0.8C69.9,57.3,74.9,57.2,76.5,57.2L76.5,57.2z"/>
	<path class="st0" d="M355.7,70.3l-5.7,9.2h11.9L355.7,70.3z M310.9,69.7h-10.2v18.5h10.2c5.9,0,8-2.8,8-9.2S316.9,69.7,310.9,69.7z
		 M201.7,68.7c-7.6,0-10.8,3.2-10.8,10.3c0,7.1,3.2,10.3,10.8,10.3c7.6,0,10.8-3.2,10.8-10.3C212.5,71.9,209.2,68.7,201.7,68.7z
		 M248.5,64c1.7,0,2.4,0.3,3.1,1.3l16.1,21V71.4c0-1-0.2-2.5-2.1-2.7l-4.1-0.4V64h19.3v4.1l-4.1,0.4c-1.8,0.2-2.1,1.7-2.1,2.7v22.8
		h-14.8c-1.7,0-2.4-0.3-3.1-1.3l-16.1-21v15c0,1,0.2,2.5,2.1,2.7l4.1,0.4v4.2h-19.3v-4.1l4.1-0.4c1.8-0.2,2.1-1.7,2.1-2.7V71.3
		c0-1-0.2-2.5-2.1-2.7l-4.1-0.4V64H248.5z M144.8,64v4.1l-4.1,0.4c-1.8,0.2-2.1,1.7-2.1,2.7V76h18.7v-4.8c0-1-0.2-2.5-2.1-2.7
		l-4.1-0.4V64h24.3v4.1l-4.1,0.4c-1.8,0.2-2.1,1.7-2.1,2.7v15.7c0,1,0.2,2.5,2.1,2.7l4.1,0.4v4.1h-24.3v-4.1l4.1-0.4
		c1.8-0.2,2.1-1.7,2.1-2.7v-4.8h-18.7v4.8c0,1,0.2,2.5,2.1,2.7l4.1,0.4v4.1h-24.3v-4.1l4.1-0.4c1.8-0.2,2.1-1.7,2.1-2.7V71.3
		c0-1-0.2-2.5-2.1-2.7l-4.1-0.4V64H144.8z M363.7,64c1.5,0,2.3,0.4,3.2,2.1L381,87.3c0.6,0.9,1.2,2.2,3.1,2.4l3.9,0.4v4h-26.3V90
		l3.5-0.3c1.3-0.1,2.9-0.9,1.6-2.7l-1.4-2.1h-18.6l-1.5,2.5c-0.8,1.2,0.1,2.2,1.5,2.3l3.4,0.3v4.1h-19.3V90l4.1-0.4
		c1.2-0.1,1.7-1,2.2-1.6l10.3-16.8c0.9-1.4-0.2-2.5-1-2.6l-5.5-0.6v-4h22.8L363.7,64z M313.2,64C324,64,333,68.5,333,79
		c0,10.7-8.9,15-19.8,15h-30.3V90l4.1-0.4c1.8-0.2,2.1-1.7,2.1-2.7V70.9c0-1.7-0.9-2.3-2.2-2.5l-3.6-0.3V64L313.2,64z M201.7,62.9
		c19.7,0,24.9,8.5,24.9,16.1c0,7.6-5.2,16.1-24.9,16.1s-24.9-8.5-24.9-16.1C176.8,71.6,181.8,62.9,201.7,62.9z"/>
</g>
</svg>
